<?xml version="1.0" standalone="no"?>
<!DOCTYPE svg PUBLIC "-//W3C//DTD SVG 20010904//EN"
 "http://www.w3.org/TR/2001/REC-SVG-20010904/DTD/svg10.dtd">
<svg version="1.0" xmlns="http://www.w3.org/2000/svg"
 width="500.000000pt" height="500.000000pt" viewBox="0 0 500.000000 500.000000"
 preserveAspectRatio="xMidYMid meet">

<g transform="translate(0.000000,500.000000) scale(0.100000,-0.100000)"
fill="#000000" stroke="none">
<path d="M2389 3489 c-52 -27 -125 -72 -164 -101 l-70 -53 -3 -96 -3 -97 75
39 c159 84 319 129 486 138 l115 6 -60 48 c-64 51 -168 114 -239 145 l-43 19
-94 -48z"/>
<path d="M2763 3252 c-20 -3 -19 -7 22 -88 44 -86 95 -226 116 -319 6 -27 14
-101 17 -164 l7 -114 63 84 c34 46 83 123 107 172 l44 87 -23 50 c-36 77 -93
170 -142 232 l-44 56 -73 4 c-39 2 -82 2 -94 0z"/>
<path d="M2011 3168 c-34 -46 -82 -123 -106 -171 l-45 -88 44 -87 c57 -113
141 -230 172 -242 14 -6 60 -10 103 -10 l78 0 -43 83 c-81 156 -132 345 -136
506 -2 50 -3 91 -4 91 0 0 -29 -37 -63 -82z"/>
<path d="M3257 2086 c-66 -24 -102 -62 -115 -124 -29 -133 86 -244 221 -213
53 12 97 37 97 55 0 7 -10 22 -23 34 l-24 22 -39 -21 c-61 -34 -124 -8 -140
56 -21 86 61 150 139 107 l38 -21 31 28 31 28 -29 20 c-31 22 -95 43 -129 43
-11 -1 -37 -7 -58 -14z"/>
<path d="M1170 1920 l0 -170 45 0 45 0 0 83 1 82 42 -68 c54 -86 67 -85 124 8
l43 69 0 -87 0 -87 45 0 45 0 0 170 0 170 -39 0 c-38 0 -39 -1 -95 -95 -31
-52 -59 -95 -61 -95 -2 0 -30 43 -61 95 -56 94 -57 95 -95 95 l-39 0 0 -170z"/>
<path d="M1630 1920 l0 -170 50 0 50 0 0 170 0 170 -50 0 -50 0 0 -170z"/>
<path d="M1790 1920 l0 -170 50 0 49 0 3 87 3 88 70 -87 c68 -84 71 -87 113
-87 l42 -1 0 170 0 170 -50 0 -49 0 -3 -86 -3 -86 -70 86 c-68 83 -71 86 -112
86 l-43 0 0 -170z"/>
<path d="M2190 1920 l0 -170 135 0 135 0 0 35 0 34 -87 3 -88 3 -3 33 -3 32
75 0 76 0 0 35 0 35 -75 0 -75 0 0 30 0 30 85 0 85 0 0 35 0 35 -130 0 -130 0
0 -170z"/>
<path d="M2482 2053 l3 -38 53 -3 52 -3 0 -130 0 -129 45 0 45 0 0 129 0 130
53 3 52 3 3 38 3 37 -156 0 -156 0 3 -37z"/>
<path d="M2820 1920 l0 -170 140 0 140 0 0 35 0 35 -90 0 -90 0 0 35 0 35 75
0 75 0 0 35 0 35 -75 0 -75 0 0 30 0 30 85 0 85 0 0 35 0 35 -135 0 -135 0 0
-170z"/>
<path d="M3510 1920 l0 -170 50 0 50 0 0 65 0 65 65 0 65 0 0 -65 0 -65 45 0
45 0 0 170 0 170 -45 0 -45 0 0 -65 0 -65 -65 0 -65 0 0 65 0 65 -50 0 -50 0
0 -170z"/>
<path d="M1618 1569 c-10 -5 -18 -19 -18 -29 0 -11 -5 -20 -12 -20 -9 0 -9 -3
0 -12 7 -7 12 -31 12 -55 0 -58 18 -55 22 5 3 43 5 47 28 47 22 0 25 -5 28
-43 3 -45 19 -60 50 -47 15 6 14 8 -5 16 -32 12 -33 68 -1 77 l22 5 -22 8
c-12 5 -22 15 -22 24 0 22 -17 18 -23 -5 -3 -12 -14 -20 -25 -20 -29 0 -38 20
-13 27 12 3 20 10 18 16 -5 16 -20 18 -39 6z"/>
<path d="M3180 1496 c0 -71 3 -86 15 -86 13 0 15 14 13 82 -2 54 -7 83 -15 86
-10 3 -13 -18 -13 -82z"/>
<path d="M3540 1565 c-10 -12 -10 -15 3 -15 19 0 31 16 18 24 -5 3 -14 -1 -21
-9z"/>
<path d="M1329 1551 c-30 -25 -19 -48 36 -74 33 -16 36 -20 23 -33 -11 -12
-21 -13 -43 -4 -34 13 -47 3 -21 -16 29 -21 72 -18 90 8 19 27 9 46 -35 67
-42 20 -39 36 6 35 40 -1 48 20 13 30 -35 9 -44 7 -69 -13z"/>
<path d="M2544 1536 c-6 -14 -8 -28 -3 -33 4 -4 9 -26 11 -48 3 -35 6 -40 31
-43 31 -4 37 13 7 21 -30 8 -28 64 3 77 18 7 19 9 4 9 -11 1 -21 10 -24 21 -7
26 -16 25 -29 -4z"/>
<path d="M1460 1510 c-11 -11 -20 -29 -20 -40 0 -27 35 -60 63 -60 37 0 60 23
60 60 0 56 -62 81 -103 40z m68 -12 c17 -17 15 -43 -4 -59 -31 -26 -70 25 -44
56 15 18 32 19 48 3z"/>
<path d="M1750 1523 c0 -3 8 -30 17 -60 18 -58 38 -68 54 -25 5 15 12 34 15
42 4 10 12 0 21 -28 20 -58 41 -52 65 17 17 52 17 75 -1 55 -5 -5 -14 -27 -22
-49 l-13 -40 -15 48 c-18 58 -36 60 -52 7 -7 -22 -15 -40 -19 -40 -4 0 -12 18
-19 40 -6 22 -16 40 -21 40 -6 0 -10 -3 -10 -7z"/>
<path d="M1973 1523 c-24 -9 -13 -21 18 -19 18 0 34 -5 36 -11 3 -9 -6 -13
-25 -13 -37 0 -60 -25 -45 -48 7 -11 26 -18 57 -19 l46 -2 0 44 c0 62 -35 89
-87 68z m55 -75 c-7 -20 -48 -23 -48 -4 0 11 9 16 26 16 16 0 24 -5 22 -12z"/>
<path d="M2090 1469 c0 -46 3 -59 15 -59 11 0 15 11 15 40 0 29 5 42 20 50 30
16 24 26 -15 27 l-35 1 0 -59z"/>
<path d="M2187 1512 c-38 -42 -6 -107 49 -100 40 4 43 26 3 25 -18 -1 -34 4
-36 11 -3 8 8 12 36 12 37 0 41 2 41 25 0 43 -63 61 -93 27z m57 -8 c26 -10
18 -24 -14 -24 -29 0 -38 9 -23 23 8 9 17 9 37 1z"/>
<path d="M2350 1526 c0 -2 11 -29 25 -60 27 -61 26 -76 -6 -76 -10 0 -19 -5
-19 -11 0 -21 55 -4 67 21 36 77 52 130 39 130 -7 0 -19 -18 -26 -40 -7 -22
-16 -40 -20 -40 -4 0 -13 18 -20 40 -7 22 -19 40 -27 40 -7 0 -13 -2 -13 -4z"/>
<path d="M2647 1512 c-10 -10 -17 -33 -17 -51 0 -37 32 -58 74 -47 35 9 33 27
-2 20 -19 -4 -32 -1 -41 10 -12 14 -8 16 33 16 39 0 46 3 46 19 0 46 -62 67
-93 33z m63 -17 c11 -13 7 -15 -25 -15 -32 0 -36 2 -25 15 7 8 18 15 25 15 7
0 18 -7 25 -15z"/>
<path d="M2776 1514 c-9 -8 -16 -31 -16 -50 0 -40 31 -61 74 -50 36 9 32 24
-5 22 -38 -1 -60 25 -43 52 8 11 22 16 43 14 33 -2 42 12 15 22 -27 10 -52 7
-68 -10z"/>
<path d="M2890 1468 c0 -45 3 -58 15 -58 11 0 15 11 15 40 0 28 5 42 18 49 27
14 42 -5 42 -51 0 -29 4 -38 16 -38 14 0 16 8 11 52 -4 28 -12 55 -18 59 -7 4
-32 7 -56 6 l-43 0 0 -59z"/>
<path d="M3050 1510 c-24 -24 -25 -48 -4 -78 31 -45 104 -19 104 37 0 55 -61
80 -100 41z m74 -22 c15 -25 -4 -53 -35 -53 -19 0 -25 6 -27 29 -5 45 38 61
62 24z"/>
<path d="M3257 1512 c-21 -23 -22 -66 -1 -86 23 -24 70 -20 88 6 21 30 20 54
-4 78 -25 25 -62 26 -83 2z m61 -14 c17 -17 15 -58 -4 -65 -36 -13 -68 33 -44
62 15 18 32 19 48 3z"/>
<path d="M3398 1519 c-22 -12 -24 -71 -3 -89 8 -7 28 -10 45 -8 32 5 35 1 21
-21 -6 -9 -20 -12 -40 -9 -21 3 -31 0 -31 -9 0 -17 71 -18 88 -1 7 7 12 40 12
78 l0 66 -37 1 c-21 1 -46 -3 -55 -8z m62 -24 c20 -24 3 -57 -28 -53 -30 3
-41 30 -22 53 16 19 34 19 50 0z"/>
<path d="M3530 1470 c0 -33 4 -60 10 -60 6 0 10 27 10 60 0 33 -4 60 -10 60
-6 0 -10 -27 -10 -60z"/>
<path d="M3603 1523 c-24 -9 -13 -21 18 -19 18 0 34 -5 36 -11 3 -9 -6 -13
-25 -13 -37 0 -60 -25 -45 -48 7 -11 26 -18 57 -19 l46 -2 0 44 c0 62 -35 89
-87 68z m55 -75 c-7 -20 -48 -23 -48 -4 0 11 9 16 26 16 16 0 24 -5 22 -12z"/>
</g>
</svg>
